<svg width="24px" height="24px" viewBox="0 0 188 156" version="1.1"
     xmlns="http://www.w3.org/2000/svg"
     style="mix-blend-mode:difference; fill:black;">
    <g id="Page-1" stroke="none" stroke-width="1" fill-rule="evenodd">
        <g id="LOGO-Blackbird">
            <g id="Logo-complet">
                <path d="M10.3665017,88.1502586 C10.5962551,114.797828 27.9961914,137.239817 51.9819415,145.276754 C39.7888757,137.397618 32.2453532,124.463995 32.2453532,109.764963 L32.2453532,91.9892045 C25.3697507,89.8463854 17.9152285,88.2791845 10.3665017,88.1502586 Z" id="Oval-2-Copy"></path>
                <g id="logo">
                    <path d="M80.9799177,18.016273 C81.3092371,18.0054537 81.6393665,18 81.9702602,18 C105.096414,18 125.806691,38.7515393 125.806691,61.9240326 L125.152416,106.487451 C125.152416,129.659952 105.101499,148.444976 81.9702602,148.444976 C58.8441062,148.444976 38.7881041,129.659944 38.7881041,106.487451 L39.0885388,88.7334894 C36.9527077,73.7110854 25.4343789,60.9280583 12.3762233,57.2802526 C28.5180053,35.1982521 47.6639474,18 80.9888476,18 L80.9799177,18.016273 Z M79.6802974,75.6842105 C87.0878936,75.6842105 93.0929368,69.667903 93.0929368,62.2464115 C93.0929368,54.82492 87.0878936,48.8086124 79.6802974,48.8086124 C72.2727012,48.8086124 66.267658,54.82492 66.267658,62.2464115 C66.267658,69.667903 72.2727012,75.6842105 79.6802974,75.6842105 Z" id="Rectangle-1"></path>
                </g>
            </g>
        </g>
    </g>
</svg>
